<svg width="10" height="7" viewBox="0 0 10 7" fill="none" xmlns="http://www.w3.org/2000/svg">
<path d="M0.0224609 1.10811C0.0224609 1.32393 0.0999345 1.50102 0.243814 1.6449L4.38867 5.88936C4.57682 6.07751 4.77051 6.17159 5.00846 6.17159C5.24642 6.17159 5.44564 6.08305 5.62825 5.88936L9.77865 1.6449C9.92253 1.49548 10 1.3184 10 1.10811C10 0.682007 9.6569 0.333374 9.23079 0.333374C9.02051 0.333374 8.82129 0.421916 8.66634 0.576864L5.00846 4.33988L1.35612 0.576863C1.20117 0.421915 1.00195 0.333374 0.791666 0.333374C0.36556 0.333374 0.0224609 0.682006 0.0224609 1.10811Z" fill="#3C3C43" fill-opacity="0.6"/>
</svg>
