<svg width="32" height="35" viewBox="0 0 32 35" fill="none" xmlns="http://www.w3.org/2000/svg">
<path fill-rule="evenodd" clip-rule="evenodd" d="M29.4447 29.1572C25.8876 27.6215 25.7523 21.0295 25.7497 20.8632V16.4408C25.7497 12.1845 23.0292 8.52447 19.1633 6.96608C19.155 4.77779 17.2907 3 15.0001 3C12.7094 3 10.8452 4.77789 10.8369 6.96598C6.97112 8.52437 4.25056 12.1844 4.25056 16.4407V20.8631C4.24805 21.0294 4.11263 27.6213 0.555497 29.1571C0.150282 29.3321 -0.0724251 29.7538 0.0212628 30.1694C0.114841 30.585 0.499273 30.8819 0.943976 30.8819H9.96164C10.1465 31.8541 10.6274 32.7586 11.3628 33.4912C12.3396 34.4642 13.6314 35 14.9999 35C16.3686 35 17.6604 34.4642 18.6371 33.4912C19.3727 32.7585 19.8535 31.854 20.0383 30.8819H29.0559C29.5006 30.8819 29.885 30.5851 29.9787 30.1694C30.0725 29.7538 29.8499 29.3322 29.4447 29.1572ZM24.759 25.9993C25.1329 27.0831 25.6624 28.1715 26.4132 29.0773H3.58687C4.33758 28.1716 4.86705 27.0833 5.24098 25.9993H24.759ZM17.1864 6.37764C16.9123 5.47034 16.0363 4.80471 15.0001 4.80471C13.964 4.80471 13.088 5.47039 12.8138 6.37764C13.52 6.23756 14.2512 6.16378 15.0001 6.16378C15.749 6.16378 16.4802 6.23761 17.1864 6.37764ZM6.13827 20.8686V16.4406C6.13827 11.7691 10.1136 7.96849 15.0001 7.96849C19.8866 7.96849 23.862 11.7691 23.862 16.4406V20.876C23.8632 21.0117 23.8853 22.4383 24.2614 24.1945H5.73863C6.11491 22.4366 6.13712 21.0076 6.13827 20.8686ZM11.8986 30.8819C12.3021 32.2024 13.5595 33.1954 15.0001 33.1954C16.4409 33.1954 17.698 32.2024 18.1015 30.8819H11.8986Z" fill="#BFC5D2"/>
<path d="M31 6C31 8.76142 28.7614 11 26 11C23.2386 11 21 8.76142 21 6C21 3.23858 23.2386 1 26 1C28.7614 1 31 3.23858 31 6Z" fill="#2E5BFF" stroke="white" stroke-width="2"/>
</svg>
